<?xml version="1.0" standalone="no"?>
<!DOCTYPE svg PUBLIC "-//W3C//DTD SVG 1.1//EN" "http://www.w3.org/Graphics/SVG/1.1/DTD/svg11.dtd" >
<svg xmlns="http://www.w3.org/2000/svg">
<metadata>
This is a custom SVG webfont generated by Font Squirrel.
Copyright   : This font drawn by and copyright Ben Weiner 19992001 Modifications for version 20 copyright Ben Weiner 20067 Licensed under the Open Font License httpscriptssilorgOFL See accompanying license and FONTLOG
</metadata>
<defs>
<font id="webfontWL0pRJbZ" horiz-adv-x="1024" >
<font-face units-per-em="2048" ascent="1638" descent="-410" />
<missing-glyph horiz-adv-x="559" />
<glyph unicode=" "  horiz-adv-x="559" />
<glyph unicode="&#x09;" horiz-adv-x="559" />
<glyph unicode="&#xa0;" horiz-adv-x="559" />
<glyph unicode="!" horiz-adv-x="481" d="M117 90q0 49 32.5 84t81.5 35q51 0 86 -34t35 -85t-34.5 -84t-86.5 -33q-49 0 -81.5 34t-32.5 83zM156 393v1053h174v-1053h-174z" />
<glyph unicode="&#x22;" horiz-adv-x="673" d="M141 1280q0 -49 30 -155.5t56 -151.5h27q23 45 51.5 151.5t28.5 155.5q0 115 -96.5 115t-96.5 -115zM430 1280q0 -49 29.5 -155.5t56.5 -151.5h29q23 45 51.5 151.5t28.5 155.5q0 115 -97 115q-98 0 -98 -115z" />
<glyph unicode="#" horiz-adv-x="1097" d="M141 797v106l209 23v161l-207 -22v106l209 23v154l117 12l-2 -154l166 17v153l119 17l-4 -158l163 18v-106l-163 -19v-159l161 16v-106l-164 -17v-198l-116 -13l2 199l-164 -19l-2 -198l-117 -12l2 198zM467 938l164 18v160l-164 -16v-162z" />
<glyph unicode="$" horiz-adv-x="1097" d="M158 141l96 127q117 -137 285 -137q98 0 160.5 56.5t62.5 154.5t-96 154q-27 16 -183 71q-135 49 -196 109q-90 88 -90 242q0 117 73.5 200.5t190.5 112.5v182h182v-176q125 -23 246 -121l-90 -119q-115 96 -236 97q-182 0 -182 -187q0 -109 188 -172q205 -70 269 -123 q98 -84 98 -266q0 -297 -293 -358v-193h-182v187q-209 28 -303 159z" />
<glyph unicode="%" horiz-adv-x="1097" d="M45 1087q0 102 59.5 173t160 71t160.5 -70.5t60 -173.5q0 -111 -55 -176q-57 -72 -166 -71q-106 0 -162.5 69t-56.5 178zM68 -109l772 1395l141 -53l-762 -1393zM170 1081q0 -47 23 -86q27 -45 71 -45q94 0 94 131q0 49 -22 88q-29 47 -74 47.5t-72 -47.5 q-20 -39 -20 -88zM596 250q0 104 61.5 177t164 73t162.5 -73t60 -177q0 -113 -53 -180q-59 -74 -170 -74q-113 0 -169 69.5t-56 184.5zM725 242q0 -131 96 -131q47 0 72 45q23 37 22 86q0 51 -22 90q-27 49 -74 49t-74 -49q-20 -39 -20 -90z" />
<glyph unicode="&#x26;" horiz-adv-x="1136" d="M51 346q0 121 65.5 225.5t174.5 163.5q-92 127 -92 256q0 137 95 228.5t232 91.5q172 0 308 -148l-97 -98q-92 115 -225 115q-152 0 -152 -158q0 -92 62 -213q109 45 227 49l29 -125q-109 0 -178 -33q160 -221 264 -327q29 102 29 143q0 47 -21 129l143 12 q14 -92 15 -147q0 -113 -45 -246q53 -61 190 -129l-94 -127q-80 27 -195 127q-150 -154 -321 -153q-178 0 -291 92q-123 100 -123 272zM201 365q0 -109 71.5 -174.5t182.5 -65.5q135 0 227 117q-227 233 -322 387q-159 -88 -159 -264z" />
<glyph unicode="'" horiz-adv-x="397" d="M125 1284q0 -53 35 -162q35 -115 65 -149q33 53 62.5 151.5t29.5 159.5q0 115 -94 115q-98 0 -98 -115z" />
<glyph unicode="(" horiz-adv-x="651" d="M94 662q0 514 262 942l129 -62q-213 -496 -213 -880q0 -236 64 -457q31 -111 156 -426l-136 -62q-262 453 -262 945z" />
<glyph unicode=")" horiz-adv-x="647" d="M160 -221q127 324 155 422q66 221 66 452q0 397 -215 889l131 62q254 -416 254 -936q0 -512 -254 -951z" />
<glyph unicode="*" horiz-adv-x="563" d="M41 1063l166 102l-164 105l53 90l140 -125l-9 184l97 -2l-11 -182l136 125l51 -90l-158 -103l160 -104l-53 -90l-136 123l9 -183h-97l6 183l-135 -123z" />
<glyph unicode="+" horiz-adv-x="1019" d="M109 578v129h337v360h125v-360h342v-129h-342v-381h-125v381h-337z" />
<glyph unicode="," horiz-adv-x="520" d="M133 -147l90 -25q186 244 189 418h-199q0 -78 -25 -201q-24 -129 -55 -192z" />
<glyph unicode="-" horiz-adv-x="778" d="M102 547v190h574v-190h-574z" />
<glyph unicode="." horiz-adv-x="477" d="M125 131q0 59 39 104.5t98.5 45.5t97 -45.5t37.5 -104.5t-37.5 -104t-97 -45t-98.5 45t-39 104z" />
<glyph unicode="/" horiz-adv-x="788" d="M27 -313l606 1755l166 -35l-609 -1755z" />
<glyph unicode="0" d="M35 524q0 223 132 374t345 151t348 -158q127 -147 127 -365q0 -225 -119 -376q-129 -168 -354 -168q-223 0 -354 157q-125 149 -125 385zM164 524.5q0 -159.5 90 -282.5q100 -135 256 -136q172 0 266 132q82 113 82 288q0 168 -96 286t-250 118q-158 0 -258 -129 q-90 -117 -90 -276.5z" />
<glyph unicode="1" d="M250 915v123h424v-1038h-156v915h-268z" />
<glyph unicode="2" d="M170 872q162 190 340 191q143 0 240.5 -86t97.5 -232q0 -207 -180 -356l-277 -231h535v-158h-752l-2 158l338 291q98 86 137 143q45 70 45 151q-2 74 -53 125.5t-125 51.5q-137 0 -250 -148z" />
<glyph unicode="3" d="M145 -209l78 109q131 -125 258 -125t200 74.5t73 216.5q0 104 -62 180q-76 92 -217 92q-39 0 -137 2v129q92 0 135 12q193 59 193 252q0 84 -52.5 136.5t-124.5 52.5q-137 0 -219 -142l-104 88q160 197 319 197q139 0 232 -80q102 -90 102 -248q0 -92 -41 -172 q-43 -86 -121 -127q121 -25 193 -132t72 -240q0 -188 -124 -310.5t-327 -122.5q-189 0 -326 158z" />
<glyph unicode="4" d="M55 0v156l584 886h119v-886h205v-156h-205v-344h-133v344h-570zM242 156h383v596z" />
<glyph unicode="5" horiz-adv-x="1196" d="M106 -172l72 94q125 -154 314 -153q139 0 219 106q72 96 71 234q0 129 -82 213q-74 76 -174 75q-115 0 -241 -100l-140 61v682h709v-125h-553v-456q102 102 283 102q129 0 239 -115q123 -129 123 -325q0 -184 -123 -328q-133 -160 -336 -160q-111 0 -221.5 57.5 t-159.5 137.5z" />
<glyph unicode="6" d="M49 547q0 340 148 557q166 242 458 242q160 0 312 -78l-60 -125q-131 68 -254 67q-180 0 -301 -150.5t-129 -371.5q150 213 342 213q160 0 279 -131q127 -139 127 -346q0 -186 -130 -327.5t-309 -141.5q-207 0 -333 131q-150 154 -150 461zM227 444.5q0 -139.5 76 -241.5 q86 -117 229 -117q119 0 207 109q84 102 84 221q0 158 -83 252t-210 94q-117 0 -206 -86q-97 -92 -97 -231.5z" />
<glyph unicode="7" d="M158 909v123h764v-125l-555 -1253l-160 45l538 1210h-587z" />
<glyph unicode="8" d="M88 340q0 117 68 221q78 115 215 176q-113 72 -158 127q-59 76 -59 180q0 160 112 244q96 72 248 72q135 0 236 -78q109 -86 108 -223q0 -199 -221 -318q309 -129 309 -397q0 -172 -104 -278q-119 -123 -334 -123q-170 0 -289 98q-131 111 -131 299zM248 346 q0 -139 100 -217q78 -59 172 -59q119 0 195 73.5t76 200.5q0 133 -84 213q-59 55 -197 109q-127 -70 -180 -121q-82 -84 -82 -199zM293 1053q0 -154 203 -246q223 88 223 237q0 201 -219 201q-207 1 -207 -192z" />
<glyph unicode="9" d="M57 563q0 201 111 336q119 145 309 145q193 0 332 -131q170 -158 170 -450q0 -317 -105 -551q-139 -313 -419 -313q-238 0 -387 145l59 125q145 -135 344 -135q170 0 272 219q84 180 88 403q-74 -131 -139 -184q-86 -74 -213 -72q-182 2 -305 146q-117 137 -117 317z M207 569q0 -123 78 -223q82 -111 200 -110q133 0 227.5 101t94.5 238q0 131 -92 234.5t-238 103.5q-117 0 -196 -116q-74 -105 -74 -228z" />
<glyph unicode=":" horiz-adv-x="499" d="M135 131q0 59 40 104.5t97 45.5q59 0 98.5 -45.5t39.5 -104.5t-39 -104t-99 -45q-57 0 -97 45t-40 104zM135 886.5q0 59.5 40 104.5t97 45q59 0 98.5 -45t39.5 -104.5t-39 -104.5t-99 -45q-57 0 -97 45t-40 104.5z" />
<glyph unicode=";" horiz-adv-x="520" d="M133 -147l90 -25q186 244 189 418h-199q0 -78 -25 -201q-24 -129 -55 -192zM160 884.5q0 59.5 41 103.5t100 44t97 -44t38 -103.5t-39 -102.5t-96 -43q-59 0 -100 43t-41 102.5z" />
<glyph unicode="&#x3c;" horiz-adv-x="749" d="M55 592l447 491l151 -6l-383 -493l383 -492l-149 -6z" />
<glyph unicode="=" horiz-adv-x="903" d="M104 276v134h693v-134h-693zM104 588v133h693v-133h-693z" />
<glyph unicode="&#x3e;" horiz-adv-x="747" d="M49 1077l154 6l444 -491l-444 -506l-152 6l383 492z" />
<glyph unicode="?" horiz-adv-x="991" d="M78 1106q117 289 393 289q156 0 263.5 -100.5t107.5 -254.5q0 -166 -140 -280q-35 -25 -100 -78q-39 -33 -61 -90q-4 -8 -35 -105q-4 -12 4 -100h-141q-10 82 -11 131q0 96 41 166q35 59 119 130t107 97q57 66 57 131q0 90 -57.5 147.5t-147.5 57.5q-193 0 -262 -213z M334 90q0 49 32.5 84t82.5 35q51 0 85.5 -34t34.5 -85t-34.5 -84t-85.5 -33q-49 0 -82 34t-33 83z" />
<glyph unicode="@" horiz-adv-x="2068" d="M109 487.5q0 393.5 274 668t668 274.5q391 0 622.5 -244t231.5 -637q0 -217 -150 -385q-66 -74 -176 -129q-117 -59 -209 -60q-80 0 -125 64q-41 57 -33 139q-154 -201 -344 -201q-313 0 -313 433q0 229 141 424q158 215 387 215q70 0 138 -25q78 -31 110 -80l6 84h150 l-131 -835q2 -27 25.5 -47.5t50.5 -22.5q35 -2 108 43q66 39 96 74q47 51 87 146t40 163q0 334 -190.5 536.5t-521.5 202.5q-334 0 -567.5 -233.5t-233.5 -567.5q0 -336 209 -573q219 -248 551 -248q287 0 477 82q221 96 358 318l137 -89q-154 -258 -417 -364 q-215 -88 -555 -88q-389 0 -650 289q-251 280 -251 673.5zM725 440q0 -135 25 -194q47 -115 190 -115q90 0 184.5 98.5t110.5 190.5l72 395q-27 51 -101 80q-63 27 -129 27q-92 0 -196 -88q-156 -134 -156 -394z" />
<glyph unicode="A" horiz-adv-x="1163" d="M59 0l437 1339h163l443 -1331l-174 -28l-121 387h-461l-119 -387zM389 508h377l-191 620z" />
<glyph unicode="B" horiz-adv-x="1073" d="M129 4v1309l340 6q4 0 27 2h28q158 0 250 -76q98 -82 98 -237q0 -172 -86 -234q-45 -31 -135 -55q313 -68 314 -342q0 -184 -121 -285q-108 -92 -291 -92h-8zM311 137h193q285 0 284 242q0 119 -83.5 189.5t-204.5 70.5h-189v-502zM311 768l142 -2h7q105 0 173 53 q78 61 78 168q-2 211 -230 211q-29 0 -170 -6v-424z" />
<glyph unicode="C" horiz-adv-x="1103" d="M63 674q0 279 146 469q160 207 432 209q96 0 227 -43q102 -35 162 -70l-78 -162q-186 115 -301 115q-203 0 -315 -195q-88 -154 -88 -348q0 -193 94 -336q109 -166 293 -166q174 0 328 89l79 -134q-121 -68 -196 -90q-92 -29 -209 -28q-279 0 -434 213q-140 188 -140 477 z" />
<glyph unicode="D" horiz-adv-x="1157" d="M129 4v1315q141 6 299 6q346 0 504 -158q160 -160 160 -513q0 -314 -165 -485q-167 -173 -487 -173q-51 0 -155.5 4t-155.5 4zM311 152h185q195 0 303 151q98 135 98 336q0 555 -416 555q-59 0 -170 -4v-1038z" />
<glyph unicode="E" horiz-adv-x="1001" d="M129 0v1311h735v-148h-553v-395h516v-154l-516 2v-460l547 2v-158h-729z" />
<glyph unicode="F" horiz-adv-x="1003" d="M129 0v1311h737v-148h-555v-395h520v-154h-520v-614h-182z" />
<glyph unicode="G" horiz-adv-x="1191" d="M63 669q0 245 134 445q158 238 419 238q98 0 218 -33q131 -35 196 -90l-76 -154q-170 117 -319 117q-195 0 -301 -199q-84 -156 -84 -344t88 -332q104 -170 280 -170q145 0 265 64v405h-291v152h471v-643q-123 -74 -205 -102q-102 -35 -233 -35q-266 0 -420 211 q-142 191 -142 470z" />
<glyph unicode="H" horiz-adv-x="1191" d="M129 0v1311h182v-543h572v543h180v-1311h-180v614h-572v-614h-182z" />
<glyph unicode="I" horiz-adv-x="440" d="M129 0v1315h182v-1315h-182z" />
<glyph unicode="J" horiz-adv-x="440" d="M-303 -223l94 137q68 -72 137 -72q201 0 201 283v1182h182v-1166q0 -467 -409 -467q-121 1 -205 103z" />
<glyph unicode="K" horiz-adv-x="1087" d="M129 0v1311h182v-645q330 434 512 696l144 -102l-443 -574q84 -137 273 -358l280 -324l-217 -47l-452 608l-97 -143v-422h-182z" />
<glyph unicode="L" horiz-adv-x="1026" d="M129 0v1313h182v-1166h586v-147h-768z" />
<glyph unicode="M" horiz-adv-x="1624" d="M152 0v1315h260l405 -1055l416 1055h240v-1315h-183v1047l-397 -1049h-170l-404 1057v-1055h-167z" />
<glyph unicode="N" horiz-adv-x="1191" d="M129 0v1319h152l614 -932v924h168v-1288l-129 -46q-184 332 -635 973v-948z" />
<glyph unicode="O" horiz-adv-x="1318" d="M66 659q0 279 159 465q168 199 443 199q272 0 436 -199q152 -186 151 -465q0 -295 -151 -485q-164 -207 -450.5 -207t-444.5 209q-143 186 -143 483zM236 641q0 -201 106 -350q119 -166 311 -166q195 0 320 164q115 152 114 350q0 207 -106 360q-119 172 -317 172 q-201 0 -322 -170q-106 -151 -106 -360z" />
<glyph unicode="P" horiz-adv-x="940" d="M129 0v1311l387 8h12q157 0 250 -104q96 -108 96 -275q0 -164 -106 -281.5t-268 -117.5q-78 0 -189 8v-549h-182zM311 676l160 2q102 2 164 80q59 72 59 176q0 264 -196 264h-6l-181 -4v-518z" />
<glyph unicode="Q" horiz-adv-x="1347" d="M63 662q0 281 160 464q170 197 445 197q272 0 434 -195q152 -182 151 -460q0 -129 -30 -254q-39 -154 -111 -226l240 -211l-109 -120l-250 219q-154 -109 -342 -109q-285 0 -442 211q-146 191 -146 484zM233 645q0 -197 105 -348q119 -172 307 -172q113 0 219 65 l-153 136l110 118l158 -139q106 150 106 342q0 209 -104 357q-119 166 -319.5 165.5t-319.5 -168.5q-109 -149 -109 -356z" />
<glyph unicode="R" horiz-adv-x="1085" d="M129 0v1313l414 6q354 -4 354 -355q0 -147 -86 -239q-84 -90 -227 -119l221 -295q82 -106 270 -291l-227 -40q-104 104 -242 301q-94 133 -205 315l-90 -4v-592h-182zM311 729h133q147 0 216 54.5t69 195.5q0 215 -227 215h-13l-178 -4v-461z" />
<glyph unicode="S" horiz-adv-x="1007" d="M84 150l94 131q125 -145 318 -146q115 0 182 62.5t67 177.5q0 137 -161 205l-301 125q-158 99 -158 303q0 159 123 262q113 94 272 94q188 0 346 -125l-86 -129q-109 98 -260 98q-209 0 -209 -207q0 -129 213 -200q223 -76 293 -135q104 -90 105 -287q0 -190 -120 -294.5 t-313 -104.5q-117 0 -223 40q-121 46 -182 130z" />
<glyph unicode="T" horiz-adv-x="1097" d="M63 1171v138h969v-138h-381v-1171h-182v1171h-406z" />
<glyph unicode="U" horiz-adv-x="1169" d="M129 471v840h182v-840q0 -352 260 -352q145 0 220 106q66 92 65 246v840h184v-840q0 -227 -124.5 -366.5t-348.5 -139.5q-217 0 -331 148q-107 135 -107 358z" />
<glyph unicode="V" horiz-adv-x="1122" d="M84 1290l174 47l326 -1069l325 1069l152 -47l-424 -1310h-133z" />
<glyph unicode="W" horiz-adv-x="1615" d="M33 1282l178 39l270 -1022l277 1001h131l268 -999l279 1020l139 -39l-365 -1294h-106l-291 952l-291 -952h-129z" />
<glyph unicode="X" horiz-adv-x="1130" d="M74 10l381 639l-357 633l187 39l274 -498l264 500l154 -41l-338 -598l418 -674l-195 -41l-317 570l-285 -570z" />
<glyph unicode="Y" horiz-adv-x="1030" d="M59 1284l164 47l297 -608l293 608l156 -47l-363 -727v-557h-184v557z" />
<glyph unicode="Z" horiz-adv-x="1114" d="M129 158l659 1018l-624 -5v138h805l16 -148l-655 -1005h649v-156h-836z" />
<glyph unicode="[" horiz-adv-x="550" d="M115 -233v1749h313v-105h-145v-1501h166v-143h-334z" />
<glyph unicode="\" horiz-adv-x="788" d="M25 1407l163 35l609 -1755l-166 -35z" />
<glyph unicode="]" horiz-adv-x="544" d="M102 -90h166v1501h-147v105h309v-1749h-328v143z" />
<glyph unicode="^" horiz-adv-x="1097" d="M225 1034l322 355l325 -355l-86 -106l-239 284l-236 -284z" />
<glyph unicode="_" horiz-adv-x="1097" d="M10 -102h1075v-121h-1075v121z" />
<glyph unicode="`" horiz-adv-x="673" d="M117 1323l96 133l430 -196l-98 -121z" />
<glyph unicode="a" horiz-adv-x="1005" d="M84 260q0 166 100 240q66 47 248 90q70 16 221 31v129q0 68 -52 110.5t-122 42.5q-113 0 -272 -131l-84 115q63 57 168 106q115 55 188 56q141 0 237.5 -88.5t96.5 -229.5v-577q10 -41 43 -41h2q23 0 84 43l33 -107q-68 -72 -168 -72q-84 0 -129 99q-61 -47 -107 -68 q-90 -41 -204 -41q-129 0 -206 82t-77 211zM231 258q0 -74 42 -118t116 -44q80 0 164 43q100 51 100 131v207q-59 0 -155 -18q-55 -10 -117 -27q-148 -39 -150 -174z" />
<glyph unicode="b" horiz-adv-x="1054" d="M131 0v1434h162v-516q139 131 256 131q209 0 328 -160q109 -143 108 -359q0 -236 -94 -380q-111 -170 -334 -170q-131 0 -264 102l-29 -82h-133zM293 221q37 -49 113 -78q70 -29 135 -28q260 0 260 409q0 150 -51 252q-68 131 -203 131q-186 0 -254 -147v-539z" />
<glyph unicode="c" horiz-adv-x="980" d="M80 496q0 236 119 383q127 160 350 159h6q180 -2 322 -108l-86 -135q-137 104 -259 104q-145 0 -221 -139q-61 -113 -61 -273q0 -150 74 -254q84 -117 227 -116q147 0 274 112l80 -106q-150 -147 -354 -148q-268 0 -391 207q-80 136 -80 314z" />
<glyph unicode="d" horiz-adv-x="1046" d="M76 498q0 229 102 379q119 172 338 172q143 0 242 -119v497h160v-1427h-136l-24 86q-166 -113 -285 -113q-190 0 -301 174q-96 150 -96 351zM258 520.5q0 -153.5 57 -260.5q70 -135 211 -135q125 0 232 92v561q-57 78 -105.5 103.5t-144.5 25.5q-137 0 -201 -133 q-49 -100 -49 -253.5z" />
<glyph unicode="e" horiz-adv-x="1005" d="M80 506q0 233 123 379q129 154 358 153q168 0 268.5 -108.5t100.5 -278.5v-125h-676q0 -303 172 -381q68 -31 141 -30q121 0 269 131l82 -115q-164 -156 -365 -156q-279 0 -397 209q-76 134 -76 322zM268 655h500v25q0 223 -221 223q-123 0 -185.5 -60.5t-93.5 -187.5z " />
<glyph unicode="f" horiz-adv-x="663" d="M37 881v133h160v135q0 162 73 264q82 115 240 115q92 0 141 -21q14 -6 115 -69l-78 -105q-96 61 -176 64h-4q-83 0 -125 -88q-31 -70 -31 -166v-129h285v-133h-285v-881h-155v881h-160z" />
<glyph unicode="g" horiz-adv-x="1046" d="M76 -225q0 133 141 266q-45 16 -87 70.5t-42 101.5q0 55 49 104l84 84q-127 109 -129 285q0 154 119 266q108 100 264 101h6q94 -2 181 -47q76 -41 112 -97l266 41v-135l-219 6q33 -70 33 -135q0 -154 -104 -256q-119 -115 -291 -115q-100 0 -135 25q-80 -49 -80 -111 q0 -55 78 -71q37 -8 200 -8q211 0 287 -29q135 -51 135 -223q0 -176 -184 -279q-158 -88 -346 -88h-6q-129 0 -222 55q-110 68 -110 189zM221 -174q0 -84 82 -131q68 -37 158 -37q117 0 213 57q113 68 112 176q0 133 -233 134q-92 0 -203 -7q-51 -2 -92 -73 q-37 -64 -37 -119zM246 678q0 -98 62.5 -169t158.5 -71q113 0 182 74q63 66 64 178q0 96 -72 170q-68 68 -168 68q-102 0 -164.5 -76t-62.5 -174z" />
<glyph unicode="h" horiz-adv-x="1048" d="M129 0v1425h162v-526q158 147 293 148q143 0 239.5 -105.5t96.5 -249.5v-692h-160v666q0 100 -45 165q-51 76 -148 76q-80 0 -174 -65q-102 -70 -102 -146v-696h-162z" />
<glyph unicode="i" horiz-adv-x="477" d="M129 1345.5q0 47.5 32 79t79 31.5t77.5 -31.5t30.5 -79t-30.5 -80t-77.5 -32.5t-79 32.5t-32 80zM145 0v1014h166v-1014h-166z" />
<glyph unicode="j" horiz-adv-x="477" d="M-27 -293l66 -153q295 113 295 313v1147h-162v-1057q0 -141 -53 -180q-62 -45 -146 -70zM156 1347.5q0 47.5 31.5 79t78.5 31.5t79 -31.5t32 -79t-32 -79t-79 -31.5t-78.5 31.5t-31.5 79z" />
<glyph unicode="k" horiz-adv-x="974" d="M129 0v1427h162v-862l446 502l140 -94l-406 -416l481 -520l-143 -88l-449 514l-69 -70v-393h-162z" />
<glyph unicode="l" horiz-adv-x="479" d="M160 0v1430h159v-1430h-159z" />
<glyph unicode="m" horiz-adv-x="1589" d="M129 0v1014h162v-144q156 168 287 168q84 0 151.5 -53t99.5 -133q172 197 324 197q127 0 217 -100.5t90 -229.5v-719h-162v709q0 199 -180 198q-55 0 -141 -65q-104 -80 -105 -183v-659h-159v719q0 82 -44 134t-124 52t-167 -73.5t-87 -153.5v-678h-162z" />
<glyph unicode="n" horiz-adv-x="1048" d="M129 0v1014h162v-115q80 76 133 105q76 43 162 43q141 0 237.5 -105.5t96.5 -249.5v-692h-160v666q0 100 -45 165q-51 76 -148 76q-84 0 -174 -65q-102 -74 -102 -170v-672h-162z" />
<glyph unicode="o" horiz-adv-x="1118" d="M80 516q0 264 166 412q135 121 319 121q182 0 314 -121q160 -147 159 -412q0 -184 -94 -334q-129 -205 -381 -205q-276 0 -399 207q-84 142 -84 332zM256 504q0 -162 68 -266q80 -127 231 -127q158 0 238 129q70 109 69 274q0 158 -63 266q-76 131 -224 131 q-162 0 -247 -127q-72 -110 -72 -280z" />
<glyph unicode="p" horiz-adv-x="1058" d="M129 -403v1417h162v-96q135 131 239 131q453 0 453 -502q0 -246 -100 -397q-119 -176 -355 -177q-129 0 -237 117v-493h-162zM291 207q125 -96 248 -96q131 0 204 143q61 121 62 264q0 393 -277 393q-76 0 -146.5 -48t-90.5 -118v-538z" />
<glyph unicode="q" horiz-adv-x="1046" d="M76 526q0 207 90 346q115 176 347 177h5q59 0 129 -35t107 -82v82h164v-1417h-164v514q-190 -137 -293 -138q-193 0 -297 191q-88 155 -88 362zM252 508q0 -139 65 -252q78 -131 209 -131q109 0 228 92v531q-23 74 -87.5 119.5t-142.5 45.5q-150 0 -219 -137 q-53 -104 -53 -268z" />
<glyph unicode="r" horiz-adv-x="700" d="M129 0v1014h162v-168q121 190 254 190q35 0 114 -32l-49 -164q-36 25 -100 24h-10q-55 0 -132 -79.5t-77 -135.5v-649h-162z" />
<glyph unicode="s" horiz-adv-x="894" d="M98 90l82 125q106 -102 275 -102q72 0 133 53t61 123q0 113 -162 155q-125 33 -245 78q-119 61 -119 209t94 236q92 86 237 86h7q139 -2 295 -95l-54 -129q-143 92 -247 93q-178 0 -179 -150q0 -82 82 -110l295 -97q164 -76 164 -239q0 -166 -105.5 -260.5t-273.5 -94.5 q-211 0 -340 119z" />
<glyph unicode="t" horiz-adv-x="718" d="M43 881v135h162v207h162v-207h264v-137l-264 2v-609q0 -137 116 -137q63 0 160 92l80 -110q-115 -133 -285 -133q-115 0 -178 104q-55 88 -55 209v584h-162z" />
<glyph unicode="u" horiz-adv-x="1046" d="M129 328v686h162v-678q0 -227 180 -227q86 0 184.5 71.5t98.5 155.5v678h159v-1014h-145l-23 106q-152 -143 -313 -143q-139 0 -225 115q-78 107 -78 250z" />
<glyph unicode="v" horiz-adv-x="950" d="M45 981l162 45l278 -790l265 790l155 -45l-370 -1006h-111z" />
<glyph unicode="w" horiz-adv-x="1505" d="M55 981l158 41l227 -809l252 795h144l262 -793l215 807l149 -41l-313 -999h-125l-266 757l-271 -757h-129z" />
<glyph unicode="x" horiz-adv-x="1007" d="M39 43l371 461l-332 446l151 90l289 -405l299 403l127 -71l-346 -453l381 -473l-137 -94l-336 442l-330 -438z" />
<glyph unicode="y" horiz-adv-x="983" d="M45 -365l51 146q57 -27 103 -29h2q93 0 170 137l84 197l-394 893l158 43l309 -725l265 723l145 -35l-428 -1157q-35 -96 -128 -162.5t-196 -66.5q-30 -1 -141 36z" />
<glyph unicode="z" horiz-adv-x="987" d="M109 0v135l466 621q35 47 105 125h-551v131h741v-144l-450 -612q-23 -31 -92 -113h571v-143h-790z" />
<glyph unicode="{" horiz-adv-x="1097" d="M229 653l2 82q78 80 103 119q47 74 47 164q0 47 -6 139t-6 139q0 412 325 412q53 0 152 -22l-31 -154q-84 27 -117 27q-92 0 -120 -43q-37 -55 -37 -236q0 -45 5 -134t5 -134q0 -147 -168 -299v-51q82 -59 135 -167t53 -210q0 -55 -8 -166t-8 -166q0 -121 10 -152 q20 -59 94 -59q90 0 142 43l41 -154q-123 -39 -189 -34q-193 10 -250 178q-31 90 -30 329q0 41 4 124t4 124q0 178 -152 301z" />
<glyph unicode="|" horiz-adv-x="468" d="M174 -451v1856h180v-1856h-180z" />
<glyph unicode="}" horiz-adv-x="1097" d="M266 1686q98 23 152 22q326 0 325 -412q0 -47 -6 -139t-6 -139q0 -90 47 -164q25 -39 103 -119l2 -82q-152 -123 -152 -301q0 -41 4 -124t4 -124q0 -240 -34 -335q-59 -164 -246 -172q-61 -2 -189 34l41 154q51 -43 142 -43q104 0 104 127v84q0 55 -8 165.5t-8 166.5 q0 102 53 209.5t135 167.5v51q-168 152 -168 299q0 45 5 134t5 134q0 180 -36 236q-29 43 -121 43q-33 0 -117 -27z" />
<glyph unicode="~" horiz-adv-x="808" d="M170 928q76 90 178 90q72 0 168 -70q39 -29 72 -28.5t65 41.5l33 34l37 -143q-76 -76 -152 -76q-45 0 -119.5 56.5t-109.5 56.5q-59 0 -133 -109z" />
<glyph unicode="&#xa1;" horiz-adv-x="481" d="M117 1329q0 49 33.5 83t82.5 34q51 0 85 -33t34 -84t-33.5 -85t-85.5 -34q-49 0 -82.5 35t-33.5 84zM139 -211v1237h172v-1237h-172z" />
<glyph unicode="&#xa2;" horiz-adv-x="980" d="M78 496q0 207 90 346q100 158 293 190v176h182v-174q129 -23 236 -104l-88 -139q-129 100 -259 100q-147 0 -221 -135q-59 -109 -59 -269q0 -150 74 -249q82 -113 225 -113q156 0 274 108l82 -110q-119 -117 -264 -141v-164h-182v162q-219 33 -318 227q-65 129 -65 289z " />
<glyph unicode="&#xa3;" horiz-adv-x="974" d="M141 111q33 8 80 26q12 4 35 27q70 68 70 186q0 133 -29 266h-123v142h109q-31 184 -31 217q0 162 90 265t250 103q127 0 242 -65l-62 -125q-123 59 -168 59q-94 0 -153 -77q-53 -70 -54 -168q0 -35 35 -209h279v-142h-244q12 -125 12 -251q0 -158 -61 -209 q162 23 223 22q139 0 264 -35l-33 -157q-106 29 -264 28q-270 0 -444 -43z" />
<glyph unicode="&#xa4;" horiz-adv-x="1001" d="M76 645h205v94h-203l-2 152h205v420h583v-148h-401v-272h364v-154h-364v-92h364v-153h-364v-336l395 2v-158h-577v492h-203z" />
<glyph unicode="&#xa5;" horiz-adv-x="1087" d="M68 1313h184l270 -541l271 541h186l-365 -733v-37h177v-121h-177v-123h177v-121h-177v-174h-182v174h-182v121h182v123h-182v121h182v37z" />
<glyph unicode="&#xa6;" horiz-adv-x="372" d="M111 -37v561h157v-561h-157zM111 782v561h157v-561h-157z" />
<glyph unicode="&#xa7;" horiz-adv-x="802" d="M115 -72l65 101q88 -92 211 -92q49 0 92 35.5t43 82.5q0 78 -133 113q-20 6 -78 20q-25 6 -34 13q-133 45 -134 174q0 123 95 186q-94 49 -95 158q0 106 71 171.5t177 63.5q109 -2 221 -71l-45 -103q-111 70 -180 70q-66 0 -92.5 -26.5t-26.5 -92.5q0 -35 56 -59l131 -37 q199 -57 198 -209q0 -125 -84 -186q84 -49 84 -158q0 -121 -76.5 -190.5t-199.5 -69.5q-157 0 -266 106zM272 387q0 -45 111 -76l63 -18q80 35 80 106q0 53 -43 80q-31 18 -110 39q-101 -12 -101 -131z" />
<glyph unicode="&#xa8;" horiz-adv-x="626" d="M-10 1225q0 45 28.5 75.5t73.5 30.5t74 -30.5t29 -75.5t-29 -76t-74 -31t-73.5 31t-28.5 76zM420 1225q0 45 28.5 75.5t73.5 30.5q43 0 73 -31.5t30 -74.5q0 -45 -29 -76t-74 -31t-73.5 31t-28.5 76z" />
<glyph unicode="&#xa9;" horiz-adv-x="1630" d="M137 647.5q0 282.5 197.5 480t480.5 197.5t480.5 -197.5t197.5 -480t-197.5 -480.5t-480.5 -198t-480.5 198t-197.5 480.5zM270 647q0 -227 159 -386t386 -159t386 159t159 386t-159 386t-386 159t-386 -159t-159 -386zM444 651q0 180 95 301q102 131 276 133 q121 0 248 -71l-49 -105q-121 74 -193 74q-131 0 -203 -125q-55 -96 -55 -223q0 -123 62 -215q70 -106 186 -107q109 0 209 58l51 -86q-143 -76 -260 -76q-178 0 -279 135q-88 123 -88 307z" />
<glyph unicode="&#xaa;" horiz-adv-x="503" />
<glyph unicode="&#xab;" horiz-adv-x="798" d="M10 592l316 332l143 -6l-266 -332l266 -330l-143 -6zM301 592l313 332l146 -6l-268 -332l268 -330l-146 -6z" />
<glyph unicode="&#xac;" horiz-adv-x="1255" d="M180 512v190h963v-645h-172v455h-791z" />
<glyph unicode="&#xad;" horiz-adv-x="1019" d="M106 584v129h807v-129h-807z" />
<glyph unicode="&#x2212;" horiz-adv-x="1019" d="M106 584v129h807v-129h-807z" />
<glyph unicode="&#xae;" horiz-adv-x="1630" d="M137 647.5q0 282.5 197.5 480t480.5 197.5t480.5 -197.5t197.5 -480t-197.5 -480.5t-480.5 -198t-480.5 198t-197.5 480.5zM270 647q0 -227 159 -386t386 -159t386 159t159 386t-159 386t-386 159t-385 -159t-158 -386h-2zM545 233v840q215 4 264 4q229 -2 227 -231 q-2 -186 -200 -223l141 -191q47 -61 174 -184l-145 -27q-115 115 -285 393l-59 -2v-379h-117zM662 700h86q96 0 139 34t43 126q0 139 -154 137l-114 -2v-295z" />
<glyph unicode="&#xaf;" horiz-adv-x="831" d="M215 1217v133h479v-133h-479z" />
<glyph unicode="&#x2c9;" horiz-adv-x="831" d="M215 1217v133h479v-133h-479z" />
<glyph unicode="&#xb0;" horiz-adv-x="559" d="M10 1192q0 115 79 190.5t193.5 75.5t190.5 -75.5t76 -190.5t-76 -190.5t-190.5 -75.5t-193.5 75.5t-79 190.5zM119 1192q0 -72 46 -118t118 -46q70 0 113.5 47t43.5 117t-44 117t-113 47q-72 0 -118 -46t-46 -118z" />
<glyph unicode="&#xb1;" horiz-adv-x="1026" d="M109 573v127h335v359h127v-359h342v-127h-342v-378h-127v376zM135 25v110h766v-110h-766z" />
<glyph unicode="&#xb2;" horiz-adv-x="2172" />
<glyph unicode="&#xb3;" horiz-adv-x="2172" />
<glyph unicode="&#xb4;" horiz-adv-x="673" d="M117 1262l430 196l96 -133l-430 -184z" />
<glyph unicode="&#xb5;" horiz-adv-x="1040" d="M139 -401v1396h150v-700q0 -199 237 -199q74 0 144.5 67.5t70.5 141.5v692h164v-759q0 -172 80 -224q41 -27 55 -41l-131 -98q-135 78 -164 250l-129 -125q-55 -45 -122 -45q-59 0 -117 27q-63 29 -88 77v-460h-150z" />
<glyph unicode="&#x3bc;" horiz-adv-x="1040" d="M139 -401v1396h150v-700q0 -199 237 -199q74 0 144.5 67.5t70.5 141.5v692h164v-759q0 -172 80 -224q41 -27 55 -41l-131 -98q-135 78 -164 250l-129 -125q-55 -45 -122 -45q-59 0 -117 27q-63 29 -88 77v-460h-150z" />
<glyph unicode="&#xb6;" horiz-adv-x="1038" d="M102 1010q0 166 76 235.5t244 69.5h186v-1315h-141v690h-51q-316 1 -314 320zM754 0v1315h141v-1315h-141z" />
<glyph unicode="&#xb7;" horiz-adv-x="483" d="M125 845.5q0 61.5 38 112t99 50.5q59 0 100 -52q35 -49 35 -110.5t-35 -110.5q-41 -51 -100 -51q-61 0 -99 50t-38 111.5z" />
<glyph unicode="&#x2219;" horiz-adv-x="483" d="M125 845.5q0 61.5 38 112t99 50.5q59 0 100 -52q35 -49 35 -110.5t-35 -110.5q-41 -51 -100 -51q-61 0 -99 50t-38 111.5z" />
<glyph unicode="&#xb8;" horiz-adv-x="419" d="M31 -350l73 69q61 -66 105 -65q74 0 74 70q0 80 -70 79q-29 0 -72 -30l-94 43l10 192l119 2l-8 -106q18 8 51 8q80 0 132 -51t52 -131q0 -82 -56 -130.5t-140 -48.5q-133 1 -176 99z" />
<glyph unicode="&#xb9;" d="M250 915v123h424v-1038h-156v915h-268z" />
<glyph unicode="&#xba;" horiz-adv-x="2172" />
<glyph unicode="&#xbb;" horiz-adv-x="804" d="M4 256l268 330l-268 332l148 6l311 -332l-311 -342zM295 256l268 330l-268 332l145 6l314 -332l-314 -342z" />
<glyph unicode="&#xbc;" horiz-adv-x="3147" d="M2179 0v156l584 886h119v-886h205v-156h-205v-344h-133v344h-570zM2366 156h383v596zM1313 135l-162 103l760 966l160 -102zM250 915v123h424v-1038h-156v915h-268z" />
<glyph unicode="&#xbd;" horiz-adv-x="2172" />
<glyph unicode="&#xbe;" horiz-adv-x="2172" />
<glyph unicode="&#xbf;" horiz-adv-x="940" d="M70 143q0 203 153 312q195 139 160 526h164q14 -76 14 -158q0 -309 -164 -450q-92 -80 -110 -101q-57 -63 -58 -131q0 -90 57.5 -147t147.5 -57q193 0 262 210l140 -69q-121 -289 -394 -289q-156 0 -264 99t-108 255zM342 1278q0 51 35 84t86 33q49 0 82 -34t33 -83 t-33 -84t-82 -35t-85 35t-36 84z" />
<glyph unicode="&#xc0;" horiz-adv-x="1187" d="M72 0l434 1339h166l440 -1331l-174 -28l-121 387h-461l-116 -387zM319 1589l97 133l430 -196l-98 -121zM399 508h377l-188 620z" />
<glyph unicode="&#xc1;" horiz-adv-x="1163" d="M72 0l434 1339h166l440 -1331l-174 -28l-121 387h-461l-116 -387zM319 1528l431 196l96 -133l-430 -184zM399 508h377l-188 620z" />
<glyph unicode="&#xc2;" horiz-adv-x="1163" d="M72 0l434 1339h166l440 -1331l-174 -28l-121 387h-461l-116 -387zM299 1343v146l281 231l290 -231v-146l-290 191zM399 508h377l-188 620z" />
<glyph unicode="&#xc3;" horiz-adv-x="1187" d="M72 0l434 1339h166l440 -1331l-174 -28l-121 387h-461l-116 -387zM270 1546q29 43 87.5 72t111.5 31q51 2 144.5 -69t127.5 -71q51 0 103 52l53 -123q-18 -23 -70.5 -45.5t-81.5 -22.5q-51 0 -150 70.5t-126 70.5q-80 0 -143 -86zM399 508h377l-188 620z" />
<glyph unicode="&#xc4;" horiz-adv-x="1187" d="M72 0l434 1339h166l440 -1331l-174 -28l-121 387h-461l-116 -387zM279 1528q0 45 28.5 74.5t73.5 29.5q43 0 72.5 -30.5t29.5 -73.5q0 -45 -28.5 -76t-73.5 -31q-102 1 -102 107zM399 508h377l-188 620zM709 1528q0 45 28.5 74.5t73.5 29.5q43 0 72.5 -30.5t29.5 -73.5 q0 -45 -28.5 -76t-73.5 -31q-102 1 -102 107z" />
<glyph unicode="&#xc5;" horiz-adv-x="1187" d="M72 0l434 1339h166l440 -1331l-174 -28l-121 387h-461l-116 -387zM399 508h377l-188 620zM414 1583q0 78 53 127t133 49t133 -49t53 -127q0 -80 -53 -129t-133 -49t-133 49t-53 129zM512 1583q0 -90 88 -90t88 90q0 88 -88 88t-88 -88z" />
<glyph unicode="&#xc6;" horiz-adv-x="1765" d="M59 0l437 1339h163l289 -874v846h735v-148h-553v-395h517v-154l-517 2v-460l547 2v-158h-757l-113 367h-461l-119 -387zM389 508h377l-191 620z" />
<glyph unicode="&#xc7;" horiz-adv-x="1167" d="M76 674q0 281 143 469q160 207 432 209q100 0 230 -43q94 -33 159 -70l-77 -162q-186 115 -301 115q-203 0 -316 -195q-88 -154 -88 -348q0 -193 94 -336q109 -166 293 -166q174 0 330 89l78 -134q-119 -63 -185 -86q-84 -29 -188 -32l-6 -80q18 8 51 8q80 0 132 -51 t52 -131q0 -82 -56 -130.5t-140 -48.5q-131 0 -178 99l75 69q57 -66 105 -65q72 0 71 70q0 80 -67 79q-29 0 -72 -30l-94 43l10 174q-240 31 -373 241q-114 185 -114 443z" />
<glyph unicode="&#xc8;" horiz-adv-x="1001" d="M139 0v1311h735v-148h-552v-395h516v-154l-516 2v-460l546 2v-158h-729zM258 1589l94 133l432 -196l-100 -121z" />
<glyph unicode="&#xc9;" horiz-adv-x="960" d="M139 0v1311h735v-148h-552v-395h516v-154l-516 2v-460l546 2v-158h-729zM258 1528l430 196l96 -133l-432 -184z" />
<glyph unicode="&#xca;" horiz-adv-x="1001" d="M139 0v1311h735v-148h-552v-395h516v-154l-516 2v-460l546 2v-158h-729zM233 1343v146l283 231l291 -231v-146l-291 191z" />
<glyph unicode="&#xcb;" horiz-adv-x="1001" d="M139 0v1311h735v-148h-552v-395h516v-154l-516 2v-460l546 2v-158h-729zM217 1532q0 45 28.5 75.5t74 30.5t73 -30.5t27.5 -75.5t-27.5 -76t-73 -31t-74 31t-28.5 76zM645 1532q0 45 28.5 75.5t74.5 30.5q43 0 72.5 -31.5t29.5 -74.5q0 -45 -28.5 -76t-74 -31t-74 31 t-28.5 76z" />
<glyph unicode="&#xcc;" horiz-adv-x="440" d="M-23 1589l97 133l430 -196l-98 -121zM139 0v1315h183v-1315h-183z" />
<glyph unicode="&#xcd;" horiz-adv-x="440" d="M-23 1528l431 196l96 -133l-430 -184zM139 0v1315h183v-1315h-183z" />
<glyph unicode="&#xce;" horiz-adv-x="440" d="M-45 1343v146l281 231l290 -231v-146l-290 191zM139 0v1315h183v-1315h-183z" />
<glyph unicode="&#xcf;" horiz-adv-x="440" d="M-84 1532q0 45 28.5 75.5t73.5 30.5t73 -30.5t28 -75.5t-28 -76t-73 -31t-73.5 31t-28.5 76zM139 0v1315h183v-1315h-183zM344 1532q0 45 28.5 75.5t73.5 30.5q43 0 73 -31.5t30 -74.5q0 -45 -28.5 -76t-74 -31t-74 31t-28.5 76z" />
<glyph unicode="&#xd0;" horiz-adv-x="1157" d="M12 547v139h117v633q141 6 299 6q346 0 504 -157.5t160 -505.5q2 -319 -165 -492.5t-487 -173.5q-51 0 -155.5 4t-155.5 4v543h-117zM311 152h185q195 0 303 151q98 135 98 336q0 555 -416 555q-59 0 -170 -4v-504h140v-139h-140v-395z" />
<glyph unicode="&#xd1;" horiz-adv-x="1167" d="M139 0v1319h152l614 -932v924h168v-1288l-129 -46q-184 332 -635 973v-948zM313 1526q29 43 87.5 71.5t111.5 30.5q51 2 144.5 -68.5t127.5 -70.5q51 0 103 51l53 -123q-18 -23 -70.5 -45t-81.5 -22q-51 0 -150 70.5t-126 70.5q-80 0 -143 -86z" />
<glyph unicode="&#xd2;" horiz-adv-x="1318" d="M76 659q0 279 160 465q168 199 442 199q272 0 436 -199q152 -186 152 -465q0 -297 -150 -487q-164 -205 -452 -205q-287 0 -445 209q-143 186 -143 483zM246 641q0 -201 106 -350q119 -166 312 -166q195 0 319 164q115 152 115 350q0 207 -107 360q-119 172 -317 172 q-201 0 -322 -170q-106 -151 -106 -360zM408 1589l96 133l430 -196l-98 -121z" />
<glyph unicode="&#xd3;" horiz-adv-x="1318" d="M76 659q0 279 160 465q168 199 442 199q272 0 436 -199q152 -186 152 -465q0 -297 -150 -487q-164 -205 -452 -205q-287 0 -445 209q-143 186 -143 483zM246 641q0 -201 106 -350q119 -166 312 -166q195 0 319 164q115 152 115 350q0 207 -107 360q-119 172 -317 172 q-201 0 -322 -170q-106 -151 -106 -360zM408 1528l430 196l96 -133l-430 -184z" />
<glyph unicode="&#xd4;" horiz-adv-x="1318" d="M76 659q0 279 160 465q168 199 442 199q272 0 436 -199q152 -186 152 -465q0 -297 -150 -487q-164 -205 -452 -205q-287 0 -445 209q-143 186 -143 483zM246 641q0 -201 106 -350q119 -166 312 -166q195 0 319 164q115 152 115 350q0 207 -107 360q-119 172 -317 172 q-201 0 -322 -170q-106 -151 -106 -360zM399 1364v145l283 232l291 -232v-145l-291 190z" />
<glyph unicode="&#xd5;" horiz-adv-x="1327" d="M76 659q0 279 160 465q168 199 442 199q272 0 436 -199q152 -186 152 -465q0 -297 -150 -487q-164 -205 -452 -205q-287 0 -445 209q-143 186 -143 483zM246 641q0 -201 106 -350q119 -166 312 -166q195 0 319 164q115 152 115 350q0 207 -107 360q-119 172 -317 172 q-201 0 -322 -170q-106 -151 -106 -360zM313 1546q29 43 87.5 72t111.5 31q51 2 144.5 -69t127.5 -71q51 0 103 52l53 -123q-18 -23 -70.5 -45.5t-81.5 -22.5q-51 0 -150 70.5t-126 70.5q-80 0 -143 -86z" />
<glyph unicode="&#xd6;" horiz-adv-x="1327" d="M76 659q0 279 160 465q168 199 442 199q272 0 436 -199q152 -186 152 -465q0 -297 -150 -487q-164 -205 -452 -205q-287 0 -445 209q-143 186 -143 483zM246 641q0 -201 106 -350q119 -166 312 -166q195 0 319 164q115 152 115 350q0 207 -107 360q-119 172 -317 172 q-201 0 -322 -170q-106 -151 -106 -360zM367 1532q0 45 28.5 75.5t73.5 30.5q43 0 72.5 -31.5t29.5 -74.5q0 -45 -28.5 -76t-73.5 -31t-73.5 31t-28.5 76zM797 1532q0 45 28.5 75.5t73.5 30.5q43 0 72.5 -31.5t29.5 -74.5q0 -45 -28.5 -76t-73.5 -31t-73.5 31t-28.5 76z" />
<glyph unicode="&#xd8;" horiz-adv-x="1318" d="M66 659q0 279 159 465q168 199 443 199q63 0 118 -12l27 86l160 -49l-29 -95q156 -86 238 -252q74 -154 73 -342q0 -295 -151 -485q-164 -207 -451 -207q-57 0 -100 8l-35 -116l-160 49l35 117q-327 161 -327 634zM236 641q0 -135 51 -252q55 -127 157 -199l297 973 q-33 8 -77 8q-201 0 -322 -170q-106 -151 -106 -360zM600 129q37 -4 53 -4q195 0 320 164q115 152 114 350q0 299 -192 453z" />
<glyph unicode="&#xd9;" horiz-adv-x="1169" d="M139 471v840h183v-840q0 -352 262 -352q145 0 219 106q63 94 63 246v840h185v-840q0 -227 -125 -366.5t-348 -139.5q-217 0 -332 148q-107 135 -107 358zM322 1589l96 133l430 -196l-98 -121z" />
<glyph unicode="&#xda;" horiz-adv-x="1169" d="M139 471v840h183v-840q0 -352 262 -352q145 0 219 106q63 94 63 246v840h185v-840q0 -227 -125 -366.5t-348 -139.5q-217 0 -332 148q-107 135 -107 358zM322 1528l430 196l96 -133l-430 -184z" />
<glyph unicode="&#xdb;" horiz-adv-x="1169" d="M139 471v840h183v-840q0 -352 262 -352q145 0 219 106q63 94 63 246v840h185v-840q0 -227 -125 -366.5t-348 -139.5q-217 0 -332 148q-107 135 -107 358zM297 1364v145l283 232l290 -232v-145l-290 190z" />
<glyph unicode="&#xdc;" horiz-adv-x="1067" d="M139 471v840h183v-840q0 -352 262 -352q145 0 219 106q63 94 63 246v840h185v-840q0 -227 -125 -366.5t-348 -139.5q-217 0 -332 148q-107 135 -107 358zM260 1532q0 45 28.5 75.5t74 30.5t73 -30.5t27.5 -75.5t-27.5 -76t-73 -31t-74 31t-28.5 76zM688 1532 q0 45 28.5 75.5t74.5 30.5q43 0 72.5 -31.5t29.5 -74.5q0 -45 -28.5 -76t-74 -31t-74 31t-28.5 76z" />
<glyph unicode="&#xdd;" horiz-adv-x="1030" d="M70 1284l163 47l297 -608l293 608l156 -47l-363 -727v-557h-182v557zM301 1405l430 197l96 -134l-432 -184z" />
<glyph unicode="&#xde;" horiz-adv-x="1112" d="M123 -221v1655h172v-199q98 150 272 149q211 0 334 -170q109 -152 111 -370q2 -242 -97 -383q-115 -164 -344 -164q-143 0 -276 90v-608h-172zM295 559q78 -123 266 -123q147 0 217 125q57 100 58 258q0 166 -68 277q-82 131 -240 131q-162 0 -233 -152v-516z" />
<glyph unicode="&#xdf;" horiz-adv-x="1124" d="M109 0v1083q0 381 411 381q176 0 287 -92q115 -98 115 -272q0 -100 -74 -223q-94 33 -197 38q-66 4 -112.5 -38.5t-46.5 -108.5q0 -49 57 -84q37 -23 141 -55l162 -54q98 -41 138 -106.5t40 -173.5q0 -135 -104.5 -230.5t-241.5 -95.5q-127 0 -207 29q-94 35 -170 121 l86 133q57 -80 121 -107q55 -25 160 -24q74 0 131 45t57 117q0 106 -160 159l-165 52q-201 68 -201 243q0 152 83 234t234 82q41 0 80 -6q27 41 27 55q0 125 -86 180q-74 47 -164 47q-115 0 -178.5 -65.5t-63.5 -180.5v-1083h-159z" />
<glyph unicode="&#xe0;" horiz-adv-x="1005" d="M94 260q0 166 101 240q66 47 247 90q70 16 222 31v129q0 68 -52.5 110.5t-122.5 42.5q-113 0 -272 -131l-84 115q63 57 168 106q115 55 188 56q141 0 237.5 -88.5t96.5 -229.5v-577q10 -41 43 -41q23 -2 86 43l33 -107q-68 -72 -168 -72q-84 0 -129 99q-68 -51 -104 -68 q-88 -41 -207 -41q-129 0 -206 82t-77 211zM244 258q0 -74 41 -118t114 -44q80 0 164 43q100 51 101 131v207q-63 0 -156 -18q-29 -6 -117 -27q-145 -37 -147 -174zM279 1323l96 133l430 -196l-98 -121z" />
<glyph unicode="&#xe1;" horiz-adv-x="1005" d="M94 260q0 166 101 240q66 47 247 90q70 16 222 31v129q0 68 -52.5 110.5t-122.5 42.5q-113 0 -272 -131l-84 115q63 57 168 106q115 55 188 56q141 0 237.5 -88.5t96.5 -229.5v-577q10 -41 43 -41q23 -2 86 43l33 -107q-68 -72 -168 -72q-84 0 -129 99q-68 -51 -104 -68 q-88 -41 -207 -41q-129 0 -206 82t-77 211zM244 258q0 -74 41 -118t114 -44q80 0 164 43q100 51 101 131v207q-63 0 -156 -18q-29 -6 -117 -27q-145 -37 -147 -174zM279 1262l430 196l96 -133l-430 -184z" />
<glyph unicode="&#xe2;" horiz-adv-x="1005" d="M94 260q0 166 101 240q66 47 247 90q70 16 222 31v129q0 68 -52.5 110.5t-122.5 42.5q-113 0 -272 -131l-84 115q63 57 168 106q115 55 188 56q141 0 237.5 -88.5t96.5 -229.5v-577q10 -41 43 -41q23 -2 86 43l33 -107q-68 -72 -168 -72q-84 0 -129 99q-68 -51 -104 -68 q-88 -41 -207 -41q-129 0 -206 82t-77 211zM233 1077v146l283 231l291 -231v-146l-291 191zM244 258q0 -74 41 -118t114 -44q80 0 164 43q100 51 101 131v207q-63 0 -156 -18q-29 -6 -117 -27q-145 -37 -147 -174z" />
<glyph unicode="&#xe3;" horiz-adv-x="1005" d="M94 260q0 166 101 240q66 47 247 90q70 16 222 31v129q0 68 -52.5 110.5t-122.5 42.5q-113 0 -272 -131l-84 115q63 57 168 106q115 55 188 56q141 0 237.5 -88.5t96.5 -229.5v-577q10 -41 43 -41q23 -2 86 43l33 -107q-68 -72 -168 -72q-84 0 -129 99q-68 -51 -104 -68 q-88 -41 -207 -41q-129 0 -206 82t-77 211zM164 1300q29 41 87 71t109.5 32t145.5 -68.5t129 -70.5q47 0 102 51l54 -123q-18 -20 -70.5 -44t-81.5 -24q-53 0 -153.5 71t-125.5 71q-80 0 -143 -86zM244 258q0 -74 41 -118t114 -44q80 0 164 43q100 51 101 131v207 q-63 0 -156 -18q-29 -6 -117 -27q-145 -37 -147 -174z" />
<glyph unicode="&#xe4;" horiz-adv-x="1005" d="M94 260q0 166 101 240q66 47 247 90q70 16 222 31v129q0 68 -52.5 110.5t-122.5 42.5q-113 0 -272 -131l-84 115q63 57 168 106q115 55 188 56q141 0 237.5 -88.5t96.5 -229.5v-577q10 -41 43 -41q23 -2 86 43l33 -107q-68 -72 -168 -72q-84 0 -129 99q-68 -51 -104 -68 q-88 -41 -207 -41q-129 0 -206 82t-77 211zM195 1225q0 45 28.5 75.5t73.5 30.5q43 0 72.5 -31.5t29.5 -74.5q0 -45 -28.5 -76t-73.5 -31t-73.5 31t-28.5 76zM244 258q0 -74 41 -118t114 -44q80 0 164 43q100 51 101 131v207q-63 0 -156 -18q-29 -6 -117 -27 q-145 -37 -147 -174zM625 1225q0 45 28.5 75.5t73.5 30.5q43 0 72.5 -31.5t29.5 -74.5q0 -45 -28.5 -76t-73.5 -31t-73.5 31t-28.5 76z" />
<glyph unicode="&#xe5;" horiz-adv-x="1005" d="M94 260q0 166 101 240q66 47 247 90q70 16 222 31v129q0 68 -52.5 110.5t-122.5 42.5q-113 0 -272 -131l-84 115q63 57 168 106q115 55 188 56q141 0 237.5 -88.5t96.5 -229.5v-577q10 -41 43 -41q23 -2 86 43l33 -107q-68 -72 -168 -72q-84 0 -129 99q-68 -51 -104 -68 q-88 -41 -207 -41q-129 0 -206 82t-77 211zM244 258q0 -74 41 -118t114 -44q80 0 164 43q100 51 101 131v207q-63 0 -156 -18q-29 -6 -117 -27q-145 -37 -147 -174zM307 1337q0 78 52.5 127t132 49t133 -48t53.5 -128t-52.5 -129t-133.5 -49q-80 0 -132.5 49t-52.5 129z M406 1337q0 -90 86 -90q88 0 88 90q0 88 -88 88q-86 0 -86 -88z" />
<glyph unicode="&#xe6;" horiz-adv-x="1587" d="M84 260q0 166 100 240q63 47 248 90q115 27 221 37v123q0 68 -52 110.5t-122 42.5q-113 0 -272 -131l-84 115q59 53 168 106q119 55 188 56q211 0 299 -170q133 160 365 159q164 0 270 -135q96 -123 96 -293v-125h-696q0 -133 51 -229q35 -68 123 -106q78 -35 162 -35 q59 0 143 45q72 37 125 86l82 -115q-168 -156 -366 -156q-256 0 -375 175l-80 -74q-35 -25 -107 -68q-90 -41 -204 -41q-129 0 -206 82t-77 211zM231 258q0 -162 158 -162q80 0 164 43q100 51 100 131v207q-47 0 -172 -24q-131 -27 -166 -45q-84 -46 -84 -150zM827 614h521 v66q0 223 -222 223q-150 0 -213 -74q-47 -55 -86 -215z" />
<glyph unicode="&#xe7;" horiz-adv-x="989" d="M90 496q0 233 119 383q129 162 356 159q180 -2 322 -108l-86 -135q-135 104 -256 104q-147 0 -223 -139q-59 -111 -62 -273q-2 -150 74 -254q84 -117 227 -116q147 0 275 112l79 -106q-147 -143 -344 -148l-6 -71q18 8 51 8q78 0 132.5 -52.5t54.5 -129.5 q0 -82 -57.5 -130.5t-141.5 -48.5q-129 0 -176 99l76 69q57 -66 102 -65q74 0 74 70q0 80 -70 79q-29 0 -69 -30l-97 43l11 170q-207 37 -301 227q-64 129 -64 283z" />
<glyph unicode="&#xe8;" horiz-adv-x="1017" d="M90 506q0 233 123 379q129 154 358 153q168 0 268.5 -108.5t100.5 -278.5v-125h-676q0 -301 174 -381q68 -31 142 -30q121 0 268 131l80 -115q-164 -156 -365 -156q-279 0 -397 209q-76 134 -76 322zM279 655h499v25q0 223 -221 223q-123 0 -188 -63q-57 -58 -90 -185z M301 1323l94 133l432 -196l-100 -121z" />
<glyph unicode="&#xe9;" horiz-adv-x="1017" d="M90 506q0 233 123 379q129 154 358 153q168 0 268.5 -108.5t100.5 -278.5v-125h-676q0 -301 174 -381q68 -31 142 -30q121 0 268 131l80 -115q-164 -156 -365 -156q-279 0 -397 209q-76 134 -76 322zM279 655h499v25q0 223 -221 223q-123 0 -188 -63q-57 -58 -90 -185z M279 1262l430 196l96 -133l-430 -184z" />
<glyph unicode="&#xea;" horiz-adv-x="1017" d="M90 506q0 233 123 379q129 154 358 153q168 0 268.5 -108.5t100.5 -278.5v-125h-676q0 -301 174 -381q68 -31 142 -30q121 0 268 131l80 -115q-164 -156 -365 -156q-279 0 -397 209q-76 134 -76 322zM276 1077v146l283 231l291 -231v-146l-291 191zM279 655h499v25 q0 223 -221 223q-123 0 -188 -63q-57 -58 -90 -185z" />
<glyph unicode="&#xeb;" horiz-adv-x="1017" d="M90 506q0 233 123 379q129 154 358 153q168 0 268.5 -108.5t100.5 -278.5v-125h-676q0 -301 174 -381q68 -31 142 -30q121 0 268 131l80 -115q-164 -156 -365 -156q-279 0 -397 209q-76 134 -76 322zM217 1225q0 45 28.5 75.5t74 30.5t73 -30.5t27.5 -75.5t-27.5 -76 t-73 -31t-74 31t-28.5 76zM279 655h499v25q0 223 -221 223q-123 0 -188 -63q-57 -58 -90 -185zM645 1225q0 45 28.5 75.5t74.5 30.5q43 0 72.5 -31.5t29.5 -74.5q0 -45 -28.5 -76t-74 -31t-74 31t-28.5 76z" />
<glyph unicode="&#xec;" horiz-adv-x="509" d="M0 1323l94 133l432 -196l-100 -121zM158 0v1014h164v-1014h-164z" />
<glyph unicode="&#xed;" horiz-adv-x="479" d="M0 1262l430 196l96 -133l-432 -184zM158 0v1014h164v-1014h-164z" />
<glyph unicode="&#xee;" horiz-adv-x="430" d="M-45 1077v146l281 231l290 -231v-146l-290 191zM158 0v1014h164v-1014h-164z" />
<glyph unicode="&#xef;" horiz-adv-x="423" d="M-90 1225q0 45 27.5 75.5t72.5 30.5t74 -30.5t29 -75.5t-29 -76t-74 -31t-72.5 31t-27.5 76zM158 0v1014h164v-1014h-164zM338 1225q0 45 28.5 75.5t73.5 30.5q43 0 73 -31.5t30 -74.5q0 -45 -29 -76t-74 -31t-73.5 31t-28.5 76z" />
<glyph unicode="&#xf0;" horiz-adv-x="1153" d="M66 498q0 250 130 396t373 146q158 0 246 -90q-20 59 -88 164h-293v141h193q-92 111 -140 150l138 92q106 -102 202 -242h279l-2 -141h-193q154 -281 152 -487q-4 -295 -119 -463q-137 -199 -418 -199q-209 0 -340 166q-120 152 -120 367zM246 524q-2 -154 71 -266 q82 -131 230 -131q170 0 262 123q84 113 84 287q0 106 -16 196q-119 168 -310 168q-160 0 -243 -113q-76 -100 -78 -264z" />
<glyph unicode="&#xf1;" horiz-adv-x="995" d="M139 0v1014h162v-115q80 76 133 105q76 43 162 43q143 0 239.5 -105.5t96.5 -249.5v-692h-162v666q0 100 -45 165q-51 76 -147 76q-84 0 -175 -65q-102 -74 -102 -170v-672h-162zM207 1300q29 41 87 71t109.5 32t145.5 -68.5t129 -70.5q47 0 102 51l54 -123 q-18 -20 -70.5 -44t-81.5 -24q-53 0 -153.5 71t-125.5 71q-80 0 -143 -86z" />
<glyph unicode="&#xf2;" horiz-adv-x="1112" d="M90 516q0 264 166 412q137 121 322 121q182 0 313 -121q160 -145 160 -412q0 -184 -95 -334q-129 -205 -383 -205q-274 0 -399 207q-84 139 -84 332zM266 504q0 -162 68 -266q80 -127 231 -127q158 0 238 129q70 109 69 274q0 158 -63 266q-76 131 -223 131 q-162 0 -248 -127q-72 -110 -72 -280zM365 1323l96 133l430 -196l-98 -121z" />
<glyph unicode="&#xf3;" horiz-adv-x="1112" d="M90 516q0 264 166 412q137 121 322 121q182 0 313 -121q160 -145 160 -412q0 -184 -95 -334q-129 -205 -383 -205q-274 0 -399 207q-84 139 -84 332zM266 504q0 -162 68 -266q80 -127 231 -127q158 0 238 129q70 109 69 274q0 158 -63 266q-76 131 -223 131 q-162 0 -248 -127q-72 -110 -72 -280zM365 1262l430 196l96 -133l-430 -184z" />
<glyph unicode="&#xf4;" horiz-adv-x="1112" d="M90 516q0 264 166 412q137 121 322 121q182 0 313 -121q160 -145 160 -412q0 -184 -95 -334q-129 -205 -383 -205q-274 0 -399 207q-84 139 -84 332zM266 504q0 -162 68 -266q80 -127 231 -127q158 0 238 129q70 109 69 274q0 158 -63 266q-76 131 -223 131 q-162 0 -248 -127q-72 -110 -72 -280zM299 1077v146l281 231l290 -231v-146l-290 191z" />
<glyph unicode="&#xf5;" horiz-adv-x="1112" d="M90 516q0 264 166 412q137 121 322 121q182 0 313 -121q160 -145 160 -412q0 -184 -95 -334q-129 -205 -383 -205q-274 0 -399 207q-84 139 -84 332zM266 504q0 -162 68 -266q80 -127 231 -127q158 0 238 129q70 109 69 274q0 158 -63 266q-76 131 -223 131 q-162 0 -248 -127q-72 -110 -72 -280zM270 1300q29 43 87.5 72t111.5 31q51 2 144.5 -68.5t127.5 -70.5q51 0 103 51l53 -123q-18 -23 -70.5 -45.5t-81.5 -22.5q-51 0 -150 71t-126 71q-80 0 -143 -86z" />
<glyph unicode="&#xf6;" horiz-adv-x="1112" d="M90 516q0 264 166 412q137 121 322 121q182 0 313 -121q160 -145 160 -412q0 -184 -95 -334q-129 -205 -383 -205q-274 0 -399 207q-84 139 -84 332zM260 1225q0 45 28.5 75.5t74 30.5t73 -30.5t27.5 -75.5t-27.5 -76t-73 -31t-74 31t-28.5 76zM266 504q0 -162 68 -266 q80 -127 231 -127q158 0 238 129q70 109 69 274q0 158 -63 266q-76 131 -223 131q-162 0 -248 -127q-72 -110 -72 -280zM688 1225q0 45 28.5 75.5t74.5 30.5q43 0 72.5 -31.5t29.5 -74.5q0 -45 -28.5 -76t-74 -31t-74 31t-28.5 76z" />
<glyph unicode="&#xf7;" horiz-adv-x="1015" d="M109 563v144h804v-144h-804zM418 325.5q0 55.5 34.5 95.5t88 40t88.5 -40t35 -95.5t-35 -95.5t-88.5 -40t-88 40t-34.5 95.5zM418 948.5q0 55.5 34.5 95t88 39.5t88.5 -39.5t35 -95t-35 -95.5t-88.5 -40t-88 40t-34.5 95.5z" />
<glyph unicode="&#xf8;" horiz-adv-x="1118" d="M80 516q0 264 166 412q135 121 319 121q20 0 58 -5l43 140l159 -49l-43 -140q256 -135 256 -479q0 -184 -94 -334q-129 -205 -381 -205q-47 0 -88 7l-39 -125l-160 49l39 127q-119 66 -180 207q-55 122 -55 274zM256 504q0 -207 106 -316l220 723h-7q-162 0 -247 -127 q-72 -110 -72 -280zM514 113q12 -2 41 -2q158 0 238 129q70 109 69 274q0 236 -123 338z" />
<glyph unicode="&#xf9;" horiz-adv-x="987" d="M139 328v686h162v-678q0 -227 180 -227q86 0 184.5 71.5t98.5 155.5v678h160v-1014h-146q-6 29 -20 106q-154 -143 -316 -143q-139 0 -225 115q-78 107 -78 250zM301 1323l94 133l432 -196l-100 -121z" />
<glyph unicode="&#xfa;" horiz-adv-x="987" d="M139 328v686h162v-678q0 -227 180 -227q86 0 184.5 71.5t98.5 155.5v678h160v-1014h-146q-6 29 -20 106q-154 -143 -316 -143q-139 0 -225 115q-78 107 -78 250zM279 1262l430 196l96 -133l-430 -184z" />
<glyph unicode="&#xfb;" horiz-adv-x="987" d="M139 328v686h162v-678q0 -227 180 -227q86 0 184.5 71.5t98.5 155.5v678h160v-1014h-146q-6 29 -20 106q-154 -143 -316 -143q-139 0 -225 115q-78 107 -78 250zM256 1077v146l281 231l290 -231v-146l-290 191z" />
<glyph unicode="&#xfc;" horiz-adv-x="987" d="M139 328v686h162v-678q0 -227 180 -227q86 0 184.5 71.5t98.5 155.5v678h160v-1014h-146q-6 29 -20 106q-154 -143 -316 -143q-139 0 -225 115q-78 107 -78 250zM217 1225q0 45 28.5 75.5t74 30.5t73 -30.5t27.5 -75.5t-27.5 -76t-73 -31t-74 31t-28.5 76zM645 1225 q0 45 28.5 75.5t74.5 30.5q43 0 72.5 -31.5t29.5 -74.5q0 -45 -28.5 -76t-74 -31t-74 31t-28.5 76z" />
<glyph unicode="&#xfd;" horiz-adv-x="983" d="M123 1293l430 196l96 -133l-430 -184zM45 -365l51 146q57 -27 103 -29h2q93 0 170 137l84 197l-394 893l158 43l309 -725l265 723l145 -35l-428 -1157q-35 -96 -128 -162.5t-196 -66.5q-30 -1 -141 36z" />
<glyph unicode="&#xfe;" horiz-adv-x="1069" d="M123 -399v1802h170v-545q111 166 303 166q201 0 311 -145q100 -131 103 -338q2 -250 -99 -396q-117 -166 -354 -165q-82 0 -135 26l-123 78v-483h-176zM299 698l2 -499q31 -41 119 -64q72 -20 137 -20q145 0 219 137q57 109 58 266q0 152 -56 246q-70 117 -211 117 q-84 0 -157.5 -52.5t-110.5 -130.5z" />
<glyph unicode="&#xff;" horiz-adv-x="956" d="M55 -365l51 146q57 -27 103 -29q94 -2 172 137l84 197l-391 893l155 43l312 -725l264 723l143 -35l-428 -1157q-35 -96 -128 -162.5t-193 -66.5q-33 -1 -144 36zM172 1225q0 45 28.5 75.5t73.5 30.5t73 -30.5t28 -75.5t-28 -76t-73 -31t-73.5 31t-28.5 76zM600 1225 q0 45 28.5 75.5t73.5 30.5q43 0 73 -31.5t30 -74.5q0 -45 -28.5 -76t-74 -31t-74 31t-28.5 76z" />
<glyph unicode="&#x152;" horiz-adv-x="2105" d="M86 698q0 279 160 459q166 188 440 189q381 0 561 -426v409h727v-147h-542v-396h522v-153h-529l2 -461h547v-172h-727v457q-182 -463 -573 -463q-287 0 -445 215q-143 192 -143 489zM258 678q0 -201 104 -352q119 -172 311.5 -172t317.5 170q113 156 113 354 q0 207 -105 350q-117 162 -315 162q-201 0 -319 -160q-107 -145 -107 -352z" />
<glyph unicode="&#x153;" horiz-adv-x="1906" d="M80 516q0 264 166 412q135 121 319 121q158 0 279 -92.5t168 -243.5q49 156 167.5 240.5t282.5 84.5q168 0 268.5 -108.5t100.5 -278.5v-125h-676q0 -303 172 -381q68 -31 141 -30q121 0 269 131l82 -115q-164 -156 -365 -156q-362 0 -448 338q-113 -336 -443 -336 q-276 0 -399 207q-84 142 -84 332zM256 504q0 -162 68 -266q80 -127 231 -127q158 0 238 129q70 109 69 274q0 158 -63 266q-76 131 -224 131q-162 0 -247 -127q-72 -110 -72 -280zM1169 655h500v25q0 223 -221 223q-123 0 -185.5 -60.5t-93.5 -187.5z" />
<glyph unicode="&#x178;" horiz-adv-x="987" d="M70 1284l163 47l297 -608l293 608l156 -47l-363 -727v-557h-182v557zM238 1532q0 45 28.5 75.5t73.5 30.5q43 0 72.5 -31.5t29.5 -74.5q0 -45 -28.5 -76t-73.5 -31t-73.5 31t-28.5 76zM668 1532q0 45 28.5 75.5t73.5 30.5q43 0 72.5 -31.5t29.5 -74.5q0 -45 -28.5 -76 t-73.5 -31t-73.5 31t-28.5 76z" />
<glyph unicode="&#x2c6;" horiz-adv-x="690" d="M72 1077v146l282 231l291 -231v-146l-291 191z" />
<glyph unicode="&#x2dc;" horiz-adv-x="768" d="M88 1300q29 43 87 72t112 31q51 2 144 -68.5t128 -70.5q47 0 103 51l53 -123q-18 -23 -70.5 -45.5t-81.5 -22.5q-53 0 -152.5 71t-123.5 71q-80 0 -146 -86z" />
<glyph unicode="&#x2000;" horiz-adv-x="880" />
<glyph unicode="&#x2001;" horiz-adv-x="1761" />
<glyph unicode="&#x2002;" horiz-adv-x="880" />
<glyph unicode="&#x2003;" horiz-adv-x="1761" />
<glyph unicode="&#x2004;" horiz-adv-x="585" />
<glyph unicode="&#x2005;" horiz-adv-x="440" />
<glyph unicode="&#x2006;" horiz-adv-x="292" />
<glyph unicode="&#x2007;" horiz-adv-x="292" />
<glyph unicode="&#x2008;" horiz-adv-x="219" />
<glyph unicode="&#x2009;" horiz-adv-x="352" />
<glyph unicode="&#x200a;" horiz-adv-x="96" />
<glyph unicode="&#x2010;" horiz-adv-x="778" d="M102 547v190h574v-190h-574z" />
<glyph unicode="&#x2011;" horiz-adv-x="778" d="M102 547v190h574v-190h-574z" />
<glyph unicode="&#x2012;" horiz-adv-x="778" d="M102 547v190h574v-190h-574z" />
<glyph unicode="&#x2013;" d="M70 598v145h884v-145h-884z" />
<glyph unicode="&#x2014;" horiz-adv-x="2048" d="M55 598v145h1938v-145h-1938z" />
<glyph unicode="&#x2018;" horiz-adv-x="436" d="M102 1057h199q0 78 24.5 202.5t55.5 190.5l-90 25q-187 -244 -189 -418z" />
<glyph unicode="&#x2019;" horiz-adv-x="493" d="M96 1081l90 -24q186 244 189 418h-199q0 -78 -24 -201q-25 -130 -56 -193z" />
<glyph unicode="&#x201a;" horiz-adv-x="438" d="M59 68q0 55 42 98t98 43q53 0 95 -44t42 -97q-2 -92 -41 -177q-20 -43 -96 -153l-113 -8q2 2 59 92q37 57 45 98q-131 7 -131 148z" />
<glyph unicode="&#x201c;" horiz-adv-x="907" d="M182 1057h199q0 78 24.5 202.5t55.5 190.5l-90 25q-187 -244 -189 -418zM592 1057h199q0 78 24.5 202.5t54.5 190.5l-90 25q-186 -244 -188 -418z" />
<glyph unicode="&#x201d;" horiz-adv-x="907" d="M63 1081l91 -24q186 244 188 418h-199q0 -78 -24 -201q-25 -130 -56 -193zM473 1081l90 -24q186 244 189 418h-199q0 -78 -25 -201q-24 -130 -55 -193z" />
<glyph unicode="&#x201e;" horiz-adv-x="854" d="M63 -147l91 -25q186 244 188 418h-199q0 -78 -24 -201q-25 -129 -56 -192zM473 -147l90 -25q186 244 189 418h-199q0 -78 -25 -201q-24 -129 -55 -192z" />
<glyph unicode="&#x2022;" horiz-adv-x="577" d="M98 596q0 84 53.5 144.5t135.5 60.5t134 -61.5t52 -143.5t-52 -144.5t-134 -62.5q-84 0 -136.5 61.5t-52.5 145.5z" />
<glyph unicode="&#x2026;" horiz-adv-x="1271" d="M123 109q0 63 37 102t100 39q61 0 98 -39t37 -102q0 -61 -36.5 -101.5t-98 -40.5t-99.5 40.5t-38 101.5zM510 109q0 63 37 102t100 39q61 0 98 -39t37 -102q0 -61 -36.5 -101.5t-98 -40.5t-99.5 40.5t-38 101.5zM897 109q0 63 37 102t100 39q61 0 98 -39t37 -102 q0 -61 -36.5 -101.5t-98 -40.5t-99.5 40.5t-38 101.5z" />
<glyph unicode="&#x202f;" horiz-adv-x="352" />
<glyph unicode="&#x2039;" horiz-adv-x="653" d="M115 592l311 332l145 -6l-268 -332l268 -330l-145 -6z" />
<glyph unicode="&#x203a;" horiz-adv-x="649" d="M96 256l266 330l-266 332l146 6l313 -332l-313 -342z" />
<glyph unicode="&#x2044;" horiz-adv-x="1099" d="M289 135l-162 103l760 966l160 -102z" />
<glyph unicode="&#x205f;" horiz-adv-x="440" />
<glyph unicode="&#x2122;" horiz-adv-x="1312" d="M31 1208v107h508v-107h-183v-563h-131v563h-194zM590 645v674h160l182 -469l182 469h154v-674h-131v408l-156 -408h-111l-157 412v-412h-123z" />
<glyph unicode="&#xe000;" horiz-adv-x="1040" d="M0 1040h1040v-1040h-1040v1040z" />
<glyph unicode="&#xfb01;" horiz-adv-x="1140" d="M793 1345.5q0 47.5 32 79t79 31.5t77.5 -31.5t30.5 -79t-30.5 -80t-77.5 -32.5t-79 32.5t-32 80zM809 0v1014h166v-1014h-166zM37 881v133h160v135q0 162 73 264q82 115 240 115q92 0 141 -21q14 -6 115 -69l-78 -105q-96 61 -176 64h-4q-83 0 -125 -88q-31 -70 -31 -166 v-129h285v-133h-285v-881h-155v881h-160z" />
<glyph unicode="&#xfb02;" horiz-adv-x="1142" d="M824 0v1430h159v-1430h-159zM37 881v133h160v135q0 162 73 264q82 115 240 115q92 0 141 -21q14 -6 115 -69l-78 -105q-96 61 -176 64h-4q-83 0 -125 -88q-31 -70 -31 -166v-129h285v-133h-285v-881h-155v881h-160z" />
<glyph unicode="&#xfb03;" horiz-adv-x="1804" d="M1456 1345.5q0 47.5 32 79t79 31.5t77.5 -31.5t30.5 -79t-30.5 -80t-77.5 -32.5t-79 32.5t-32 80zM1472 0v1014h166v-1014h-166zM701 881v133h160v135q0 162 73 264q82 115 240 115q92 0 141 -21q14 -6 115 -69l-78 -105q-96 61 -176 64h-4q-83 0 -125 -88 q-31 -70 -31 -166v-129h285v-133h-285v-881h-155v881h-160zM37 881v133h160v135q0 162 73 264q82 115 240 115q92 0 141 -21q14 -6 115 -69l-78 -105q-96 61 -176 64h-4q-83 0 -125 -88q-31 -70 -31 -166v-129h285v-133h-285v-881h-155v881h-160z" />
<glyph unicode="&#xfb04;" horiz-adv-x="1806" d="M1487 0v1430h159v-1430h-159zM701 881v133h160v135q0 162 73 264q82 115 240 115q92 0 141 -21q14 -6 115 -69l-78 -105q-96 61 -176 64h-4q-83 0 -125 -88q-31 -70 -31 -166v-129h285v-133h-285v-881h-155v881h-160zM37 881v133h160v135q0 162 73 264q82 115 240 115 q92 0 141 -21q14 -6 115 -69l-78 -105q-96 61 -176 64h-4q-83 0 -125 -88q-31 -70 -31 -166v-129h285v-133h-285v-881h-155v881h-160z" />
</font>
</defs>
</svg>
